# xmcd
#
# Track frame offsets: 
#        150
#        16409
#        35889
#        46283
#        59949
#        80812
#        100487
#        113406
#        140052
#        160085
#        176222
#        199485
#
# Disc length: 2818 seconds
#
# Revision: 0
# Processed by: cddbd v1.5.1PL2 Copyright (c) Steve Scherf et al.
# Submitted via: ExactAudioCopy v0.95a5
#
DISCID=b70b000c
DTITLE=Travis 'Moonchild' Haddix - Blues From Staghorn Street
DYEAR=2003
DGENRE=Blues
TTITLE0=Andy's
TTITLE1=Nice To Be Needed
TTITLE2=Acute Blues Syndrome
TTITLE3=Am I Country Enough For You
TTITLE4=Cut Off Your Money
TTITLE5=Blues From Staghorn Street
TTITLE6=I'm On Top Of It
TTITLE7=Shatterproof Heart
TTITLE8=We Need To Talk
TTITLE9=Rudolph's Girlfriend
TTITLE10=Christmas 1911
TTITLE11=Surprise From Santa
EXTD=
EXTT0=
EXTT1=
EXTT2=
EXTT3=
EXTT4=
EXTT5=
EXTT6=
EXTT7=
EXTT8=
EXTT9=
EXTT10=
EXTT11=
PLAYORDER=
